<svg xmlns="http://www.w3.org/2000/svg" width="24" height="24" viewBox="0 0 24 24"><rect x="1" y="16" width="17" height="6" rx="3" fill="#59606d"/><circle cx="4.5" cy="19" r="2" fill="#494f5a"/><circle cx="4.5" cy="19" r="0.75" fill="#87a0a0"/><circle cx="9.5" cy="19" r="2" fill="#494f5a"/><circle cx="9.5" cy="19" r="0.75" fill="#87a0a0"/><circle cx="14.5" cy="19" r="2" fill="#494f5a"/><circle cx="14.5" cy="19" r="0.75" fill="#87a0a0"/><rect x="2" y="12" width="18" height="4" rx="1" fill="#6d7686"/><polygon points="19.5,12.5 22.5,16 22.5,18.5 19.5,15.5" fill="#87a0a0"/><path d="M 18.5 22 Q 19.75 18.5 21 18.5 Q 22.25 18.5 23.5 22 Z" fill="#c6f1e7" opacity="0.85"/><rect x="6" y="7" width="1" height="5" rx="0" fill="#6d7686"/><rect x="2" y="2" width="10" height="6" rx="1" fill="#59606d"/><circle cx="10" cy="5" r="2" fill="#c6f1e7"/><circle cx="10" cy="5" r="0.75" fill="#494f5a"/><circle cx="3.5" cy="1.25" r="1.25" fill="#c6f1e7"/></svg>