<svg xmlns="http://www.w3.org/2000/svg" viewBox="0 0 960 550"><defs><clipPath id="face0"><polygon points="250,42 405,120 250,198 95,120"/></clipPath><clipPath id="face1"><polygon points="95,120 250,198 250,353 95,275"/></clipPath><clipPath id="face2"><polygon points="250,198 405,120 405,275 250,353"/></clipPath></defs>
<polygon points="250,42 405,120 250,198 95,120" fill="#7a8496"/>
<polygon points="95,120 250,198 250,353 95,275" fill="#636b7a"/>
<polygon points="250,198 405,120 405,275 250,353" fill="#525a68"/>
<g clip-path="url(#face0)"><g transform="matrix(155 78 -155 78 250 42)"><circle cx="0.125" cy="0.125" r="0.075" fill="#6d7686"/><circle cx="0.125" cy="0.375" r="0.075" fill="#6d7686"/><circle cx="0.125" cy="0.625" r="0.075" fill="#6d7686"/><circle cx="0.125" cy="0.875" r="0.075" fill="#6d7686"/><circle cx="0.375" cy="0.125" r="0.075" fill="#6d7686"/><circle cx="0.375" cy="0.375" r="0.16" fill="#c6f1e7" opacity="0.35"/><circle cx="0.375" cy="0.375" r="0.075" fill="#c6f1e7"/><circle cx="0.375" cy="0.375" r="0.034" fill="#f4fdfa"/><circle cx="0.375" cy="0.625" r="0.075" fill="#6d7686"/><circle cx="0.375" cy="0.875" r="0.075" fill="#6d7686"/><circle cx="0.625" cy="0.125" r="0.075" fill="#6d7686"/><circle cx="0.625" cy="0.375" r="0.075" fill="#6d7686"/><circle cx="0.625" cy="0.625" r="0.075" fill="#6d7686"/><circle cx="0.625" cy="0.875" r="0.075" fill="#6d7686"/><circle cx="0.875" cy="0.125" r="0.075" fill="#6d7686"/><circle cx="0.875" cy="0.375" r="0.075" fill="#6d7686"/><circle cx="0.875" cy="0.625" r="0.075" fill="#6d7686"/><circle cx="0.875" cy="0.875" r="0.075" fill="#6d7686"/></g></g>
<g clip-path="url(#face1)"><g transform="matrix(155 78 0 155 95 120)"><circle cx="0.125" cy="0.125" r="0.075" fill="#575e6c"/><circle cx="0.125" cy="0.375" r="0.075" fill="#575e6c"/><circle cx="0.125" cy="0.625" r="0.075" fill="#575e6c"/><circle cx="0.125" cy="0.875" r="0.075" fill="#575e6c"/><circle cx="0.375" cy="0.125" r="0.075" fill="#575e6c"/><circle cx="0.375" cy="0.375" r="0.075" fill="#575e6c"/><circle cx="0.375" cy="0.625" r="0.075" fill="#575e6c"/><circle cx="0.375" cy="0.875" r="0.075" fill="#575e6c"/><circle cx="0.625" cy="0.125" r="0.075" fill="#575e6c"/><circle cx="0.625" cy="0.375" r="0.16" fill="#c6f1e7" opacity="0.35"/><circle cx="0.625" cy="0.375" r="0.075" fill="#c6f1e7"/><circle cx="0.625" cy="0.375" r="0.034" fill="#f4fdfa"/><circle cx="0.625" cy="0.625" r="0.075" fill="#575e6c"/><circle cx="0.625" cy="0.875" r="0.075" fill="#575e6c"/><circle cx="0.875" cy="0.125" r="0.075" fill="#575e6c"/><circle cx="0.875" cy="0.375" r="0.075" fill="#575e6c"/><circle cx="0.875" cy="0.625" r="0.075" fill="#575e6c"/><circle cx="0.875" cy="0.875" r="0.075" fill="#575e6c"/></g></g>
<g clip-path="url(#face2)"><g transform="matrix(155 -78 0 155 250 198)"><circle cx="0.125" cy="0.125" r="0.075" fill="#484f5c"/><circle cx="0.125" cy="0.375" r="0.075" fill="#484f5c"/><circle cx="0.125" cy="0.625" r="0.075" fill="#484f5c"/><circle cx="0.125" cy="0.875" r="0.075" fill="#484f5c"/><circle cx="0.375" cy="0.125" r="0.075" fill="#484f5c"/><circle cx="0.375" cy="0.375" r="0.075" fill="#484f5c"/><circle cx="0.375" cy="0.625" r="0.16" fill="#c6f1e7" opacity="0.35"/><circle cx="0.375" cy="0.625" r="0.075" fill="#c6f1e7"/><circle cx="0.375" cy="0.625" r="0.034" fill="#f4fdfa"/><circle cx="0.375" cy="0.875" r="0.075" fill="#484f5c"/><circle cx="0.625" cy="0.125" r="0.075" fill="#484f5c"/><circle cx="0.625" cy="0.375" r="0.075" fill="#484f5c"/><circle cx="0.625" cy="0.625" r="0.075" fill="#484f5c"/><circle cx="0.625" cy="0.875" r="0.075" fill="#484f5c"/><circle cx="0.875" cy="0.125" r="0.075" fill="#484f5c"/><circle cx="0.875" cy="0.375" r="0.075" fill="#484f5c"/><circle cx="0.875" cy="0.625" r="0.075" fill="#484f5c"/><circle cx="0.875" cy="0.875" r="0.075" fill="#484f5c"/></g></g>
<text x="45" y="520" font-family="Roboto Slab" font-weight="700" font-size="120" fill="#e0e8f0">Triclysm</text></svg>